<mxfile>
    <diagram id="MWCf4MxvRt17nQ3ZfBmQ" name="Page-1">
        <mxGraphModel dx="525" dy="491" grid="1" gridSize="10" guides="1" tooltips="1" connect="1" arrows="1" fold="1" page="1" pageScale="1" pageWidth="827" pageHeight="1169" math="0" shadow="0">
            <root>
                <mxCell id="0"/>
                <mxCell id="1" parent="0"/>
                <mxCell id="4" style="edgeStyle=orthogonalEdgeStyle;rounded=0;orthogonalLoop=1;jettySize=auto;html=1;" parent="1" source="2" target="3" edge="1">
                    <mxGeometry relative="1" as="geometry"/>
                </mxCell>
                <mxCell id="2" value="Start" style="rounded=1;whiteSpace=wrap;html=1;" parent="1" vertex="1">
                    <mxGeometry x="354" y="40" width="120" height="60" as="geometry"/>
                </mxCell>
                <mxCell id="6" style="edgeStyle=orthogonalEdgeStyle;rounded=0;orthogonalLoop=1;jettySize=auto;html=1;" parent="1" source="3" target="5" edge="1">
                    <mxGeometry relative="1" as="geometry"/>
                </mxCell>
                <mxCell id="3" value="number" style="shape=parallelogram;perimeter=parallelogramPerimeter;whiteSpace=wrap;html=1;fixedSize=1;" parent="1" vertex="1">
                    <mxGeometry x="354" y="160" width="120" height="60" as="geometry"/>
                </mxCell>
                <mxCell id="8" style="edgeStyle=orthogonalEdgeStyle;rounded=0;orthogonalLoop=1;jettySize=auto;html=1;entryX=0;entryY=0;entryDx=40;entryDy=0;entryPerimeter=0;" parent="1" source="5" target="15" edge="1">
                    <mxGeometry relative="1" as="geometry">
                        <mxPoint x="260" y="380" as="targetPoint"/>
                    </mxGeometry>
                </mxCell>
                <mxCell id="10" style="edgeStyle=orthogonalEdgeStyle;rounded=0;orthogonalLoop=1;jettySize=auto;html=1;" parent="1" source="5" target="16" edge="1">
                    <mxGeometry relative="1" as="geometry">
                        <mxPoint x="610" y="390" as="targetPoint"/>
                    </mxGeometry>
                </mxCell>
                <mxCell id="5" value="number&lt;br&gt;%2==0" style="rhombus;whiteSpace=wrap;html=1;" parent="1" vertex="1">
                    <mxGeometry x="374" y="280" width="80" height="80" as="geometry"/>
                </mxCell>
                <mxCell id="12" value="" style="endArrow=none;html=1;exitX=0;exitY=0;exitDx=40;exitDy=40;entryX=0;entryY=0;entryDx=40;entryDy=40;exitPerimeter=0;entryPerimeter=0;" parent="1" source="15" target="16" edge="1">
                    <mxGeometry width="50" height="50" relative="1" as="geometry">
                        <mxPoint x="240" y="460" as="sourcePoint"/>
                        <mxPoint x="580" y="460" as="targetPoint"/>
                        <Array as="points">
                            <mxPoint x="240" y="520"/>
                            <mxPoint x="580" y="520"/>
                        </Array>
                    </mxGeometry>
                </mxCell>
                <mxCell id="13" value="" style="endArrow=classic;html=1;" parent="1" target="14" edge="1">
                    <mxGeometry width="50" height="50" relative="1" as="geometry">
                        <mxPoint x="420" y="520" as="sourcePoint"/>
                        <mxPoint x="570" y="570" as="targetPoint"/>
                    </mxGeometry>
                </mxCell>
                <mxCell id="14" value="End" style="rounded=1;whiteSpace=wrap;html=1;" parent="1" vertex="1">
                    <mxGeometry x="360" y="600" width="120" height="60" as="geometry"/>
                </mxCell>
                <mxCell id="15" value="'เลขคู่'" style="shape=display;whiteSpace=wrap;html=1;" parent="1" vertex="1">
                    <mxGeometry x="200" y="400" width="80" height="40" as="geometry"/>
                </mxCell>
                <mxCell id="16" value="'เลขคี่'" style="shape=display;whiteSpace=wrap;html=1;" parent="1" vertex="1">
                    <mxGeometry x="540" y="400" width="80" height="40" as="geometry"/>
                </mxCell>
                <mxCell id="19" value="&lt;h1&gt;number&lt;/h1&gt;&lt;p&gt;รับ input และกำหนด&lt;/p&gt;&lt;p&gt;ค่าใส่ตัวแปรชื่อ number&lt;/p&gt;" style="text;html=1;strokeColor=none;fillColor=none;spacing=5;spacingTop=-20;whiteSpace=wrap;overflow=hidden;rounded=0;" vertex="1" parent="1">
                    <mxGeometry x="50" y="40" width="190" height="120" as="geometry"/>
                </mxCell>
                <mxCell id="20" value="" style="endArrow=classic;html=1;entryX=0.316;entryY=0.833;entryDx=0;entryDy=0;entryPerimeter=0;" edge="1" parent="1" target="19">
                    <mxGeometry width="50" height="50" relative="1" as="geometry">
                        <mxPoint x="347" y="190" as="sourcePoint"/>
                        <mxPoint x="120" y="150" as="targetPoint"/>
                        <Array as="points">
                            <mxPoint x="110" y="190"/>
                        </Array>
                    </mxGeometry>
                </mxCell>
                <mxCell id="21" value="True" style="text;html=1;strokeColor=none;fillColor=none;align=center;verticalAlign=middle;whiteSpace=wrap;rounded=0;" vertex="1" parent="1">
                    <mxGeometry x="290" y="300" width="40" height="20" as="geometry"/>
                </mxCell>
                <mxCell id="22" value="False" style="text;html=1;strokeColor=none;fillColor=none;align=center;verticalAlign=middle;whiteSpace=wrap;rounded=0;" vertex="1" parent="1">
                    <mxGeometry x="500" y="300" width="40" height="20" as="geometry"/>
                </mxCell>
            </root>
        </mxGraphModel>
    </diagram>
</mxfile>